<svg xmlns="http://www.w3.org/2000/svg" width="1000" height="517" viewBox="0 0 1000 517" version="1.1">
	<path d="M 7 18.300 C 7 21.765, 7.474 25.074, 8.054 25.654 C 8.634 26.234, 9.276 29.877, 9.481 33.751 C 9.686 37.624, 10.307 41.627, 10.861 42.647 C 12.451 45.574, 14.053 53.698, 13.384 55.441 C 13.050 56.312, 13.306 57.664, 13.953 58.444 C 14.601 59.224, 15.214 62.096, 15.315 64.825 C 15.417 67.555, 15.908 69.541, 16.408 69.238 C 16.912 68.932, 17.042 69.732, 16.699 71.042 C 16.361 72.336, 16.489 73.885, 16.985 74.482 C 18.217 75.967, 20.032 87.685, 19.357 89.794 C 18.894 91.243, 18.972 91.274, 19.878 90 C 20.728 88.805, 20.936 89.110, 20.898 91.500 C 20.872 93.150, 21.318 96.932, 21.889 99.904 C 22.461 102.876, 22.650 105.758, 22.310 106.308 C 21.961 106.871, 22.193 106.999, 22.839 106.600 C 23.582 106.140, 23.958 106.702, 23.904 108.195 C 23.859 109.463, 24.350 112.975, 24.997 116 C 25.644 119.025, 26.246 122.695, 26.336 124.155 C 26.426 125.614, 26.837 126.600, 27.250 126.345 C 27.663 126.091, 28 128.582, 28 131.882 C 28 135.182, 28.489 138.184, 29.087 138.554 C 29.685 138.923, 29.952 140.076, 29.680 141.114 C 29.409 142.153, 29.595 142.751, 30.093 142.442 C 30.592 142.134, 31 143.897, 31 146.359 C 31 154.564, 28.822 154, 60.500 154 C 91.429 154, 89.899 154.296, 90.619 148.167 C 90.770 146.884, 91.396 145.228, 92.010 144.488 C 92.625 143.747, 93.301 141.773, 93.513 140.101 C 93.724 138.428, 94.465 136.034, 95.158 134.780 C 95.852 133.526, 96.295 131.892, 96.143 131.150 C 95.970 130.303, 96.328 130.085, 97.103 130.564 C 97.965 131.097, 98.147 130.824, 97.701 129.664 C 96.941 127.682, 97.865 124.798, 99.030 125.518 C 99.481 125.797, 99.806 128.918, 99.753 132.452 C 99.699 135.987, 100.133 139.469, 100.716 140.190 C 101.300 140.910, 102.097 144.313, 102.487 147.750 L 103.196 154 131.598 154 C 151.128 154, 160 153.665, 160 152.929 C 160 152.339, 160.656 151.201, 161.458 150.400 C 162.259 149.598, 162.660 148.277, 162.348 147.463 C 162.035 146.650, 162.543 144.821, 163.475 143.398 C 164.407 141.976, 165.341 139.456, 165.551 137.799 C 165.760 136.143, 166.494 134.110, 167.180 133.283 C 167.867 132.456, 168.582 130.633, 168.769 129.233 C 168.957 127.833, 169.760 125.430, 170.555 123.893 C 171.350 122.357, 172 120.277, 172 119.272 C 172 118.267, 172.577 116.557, 173.282 115.473 C 173.988 114.388, 175.419 110.800, 176.463 107.500 C 177.507 104.200, 179.067 100.635, 179.930 99.578 C 180.794 98.521, 180.975 97.962, 180.333 98.336 C 179.691 98.709, 179.988 97.327, 180.991 95.263 C 181.995 93.200, 182.606 91.171, 182.349 90.756 C 182.092 90.340, 182.246 90, 182.691 89.999 C 183.136 89.999, 183.566 88.864, 183.646 87.478 C 183.726 86.091, 184.365 84.265, 185.067 83.419 C 185.769 82.574, 186.464 80.745, 186.612 79.356 C 186.761 77.966, 187.629 75.689, 188.542 74.296 C 189.455 72.902, 190.341 70.803, 190.510 69.631 C 190.905 66.895, 192.801 61.438, 194.873 57.069 C 195.768 55.182, 196.359 53.009, 196.188 52.239 C 196.016 51.469, 196.616 49.709, 197.520 48.328 C 198.425 46.948, 199.380 44.621, 199.642 43.159 C 199.903 41.697, 200.766 39.193, 201.559 37.596 C 202.351 35.999, 203 33.962, 203 33.069 C 203 32.176, 203.701 30.445, 204.557 29.223 C 205.413 28, 205.847 27, 205.522 27 C 205.196 27, 205.491 25.988, 206.177 24.750 C 206.863 23.512, 207.314 22.115, 207.177 21.645 C 207.041 21.174, 207.362 20.269, 207.890 19.633 C 208.418 18.997, 208.996 17.132, 209.175 15.488 L 209.500 12.500 189.223 12.229 C 168.303 11.950, 164.491 12.509, 165.707 15.679 C 166.165 16.873, 165.975 17.102, 165.015 16.510 C 164.139 15.968, 163.930 16.078, 164.398 16.834 C 164.786 17.463, 164.308 19.657, 163.334 21.709 C 162.360 23.761, 161.549 26.353, 161.532 27.470 C 161.514 28.586, 160.762 30.542, 159.861 31.815 C 158.959 33.088, 158.444 34.982, 158.717 36.025 C 158.989 37.067, 158.265 39.454, 157.106 41.328 C 155.948 43.203, 154.986 45.808, 154.968 47.118 C 154.951 48.428, 154.276 50.374, 153.468 51.441 C 152.661 52.509, 152 54.816, 152 56.569 C 152 58.321, 151.330 60.311, 150.511 60.991 C 149.692 61.671, 149.219 62.545, 149.460 62.935 C 149.701 63.325, 149.289 64.817, 148.545 66.251 C 147.801 67.685, 147.449 69.115, 147.763 69.429 C 148.077 69.743, 147.782 70, 147.108 70 C 146.434 70, 146.137 70.412, 146.448 70.916 C 146.760 71.420, 146.489 73.107, 145.847 74.666 C 145.205 76.225, 144.782 78.108, 144.907 78.850 C 145.047 79.682, 144.665 79.911, 143.912 79.446 C 143.127 78.960, 142.949 79.108, 143.412 79.858 C 143.809 80.500, 143.393 82.482, 142.488 84.263 C 141.582 86.043, 140.666 88.795, 140.452 90.378 C 140.238 91.960, 139.355 94.336, 138.490 95.656 C 137.625 96.976, 137.175 98.474, 137.490 98.984 C 137.806 99.494, 137.305 101.619, 136.377 103.706 C 135.450 105.793, 134.763 107.846, 134.852 108.268 C 134.940 108.690, 134.302 110.715, 133.434 112.768 L 131.857 116.500 130.293 113.552 C 129.367 111.807, 128.682 107.845, 128.614 103.844 C 128.547 99.836, 128.190 97.780, 127.739 98.792 C 127.321 99.732, 127.230 98.805, 127.538 96.733 C 127.845 94.661, 127.750 92.411, 127.327 91.733 C 126.077 89.733, 125.164 84.162, 124.502 74.500 C 124.275 71.200, 123.543 65.902, 122.874 62.728 L 121.657 56.955 104.217 57.228 L 86.776 57.500 85.486 61 C 84.777 62.925, 83.857 65.400, 83.441 66.500 C 83.025 67.600, 82.796 69.152, 82.932 69.948 C 83.067 70.745, 82.576 71.870, 81.839 72.448 C 81.103 73.027, 80.405 74.813, 80.289 76.417 C 80.173 78.021, 79.595 79.632, 79.005 79.997 C 78.415 80.362, 78.179 81.303, 78.481 82.090 C 78.783 82.876, 78.152 85.241, 77.079 87.345 C 76.006 89.449, 75.401 91.881, 75.734 92.750 C 76.097 93.695, 75.927 94.073, 75.311 93.692 C 74.691 93.309, 74.387 94.021, 74.548 95.483 C 74.694 96.817, 74.171 98.443, 73.384 99.096 C 72.534 99.801, 72.210 101.087, 72.585 102.266 C 72.931 103.358, 72.829 104.013, 72.357 103.723 C 71.886 103.432, 71.402 104.550, 71.282 106.207 C 71.162 107.863, 70.513 109.882, 69.840 110.693 C 69.167 111.504, 68.585 113.367, 68.548 114.834 C 68.510 116.300, 67.894 118.400, 67.179 119.500 C 65.959 121.376, 65.904 121.331, 66.295 118.780 C 66.546 117.142, 66.316 116.305, 65.717 116.675 C 65.083 117.067, 64.971 115.970, 65.407 113.645 C 65.783 111.640, 65.718 110, 65.263 110 C 64.357 110, 63.719 106.517, 63.586 100.845 C 63.539 98.836, 63.171 97.394, 62.769 97.643 C 62.368 97.891, 62.088 96.385, 62.149 94.297 C 62.210 92.209, 61.722 88.475, 61.065 86 C 60.408 83.525, 60.059 80.501, 60.291 79.280 C 60.542 77.952, 60.305 77.312, 59.699 77.686 C 59.054 78.085, 58.913 77.185, 59.310 75.198 C 59.681 73.347, 59.342 70.670, 58.477 68.598 C 57.676 66.681, 56.903 62.430, 56.760 59.152 C 56.617 55.874, 56.153 53.406, 55.729 53.668 C 55.304 53.930, 54.981 52.874, 55.010 51.322 C 55.039 49.770, 54.565 45.800, 53.958 42.500 C 53.351 39.200, 52.710 34.925, 52.535 33 C 52.360 31.075, 51.950 28.375, 51.624 27 C 51.298 25.625, 50.884 22.700, 50.703 20.500 C 50.522 18.300, 49.824 15.488, 49.152 14.250 C 47.946 12.030, 47.659 12, 27.465 12 L 7 12 7 18.300 M 258.635 12.781 C 258.370 13.210, 257.835 18.048, 257.447 23.531 C 257.059 29.014, 256.342 34.005, 255.854 34.622 C 255.366 35.240, 254.740 43.080, 254.463 52.044 C 254.166 61.646, 253.508 68.888, 252.862 69.666 C 252.258 70.394, 251.980 72.116, 252.244 73.494 C 252.507 74.872, 252.362 76, 251.921 76 C 251.481 76, 251.307 78.362, 251.535 81.250 C 251.764 84.138, 251.493 90.775, 250.934 96 C 250.376 101.225, 249.824 106.737, 249.709 108.250 C 249.594 109.763, 249.275 111, 249 111.001 C 248.725 111.001, 248.391 116.510, 248.257 123.242 C 248.118 130.290, 247.324 138.327, 246.385 142.187 C 245.489 145.875, 245.044 150.041, 245.397 151.446 L 246.038 154 266.318 154 L 286.598 154 287.970 150.250 C 288.725 148.188, 289.418 142.675, 289.510 138 C 289.603 133.325, 289.751 126.211, 289.839 122.191 C 289.928 118.171, 290.337 115.091, 290.750 115.345 C 291.163 115.600, 291.545 114.839, 291.601 113.655 C 291.971 105.737, 292.450 104, 294.263 104 C 295.283 104, 295.859 104.419, 295.543 104.931 C 295.226 105.443, 295.396 106.127, 295.920 106.451 C 297.371 107.347, 300.099 113.171, 298.682 112.345 C 298.032 111.966, 298.234 112.521, 299.132 113.578 C 300.029 114.635, 301.072 116.513, 301.449 117.750 C 301.826 118.987, 302.554 120, 303.067 120 C 303.580 120, 304 120.868, 304 121.929 C 304 122.989, 304.675 124.532, 305.500 125.357 C 306.325 126.182, 307 127.527, 307 128.347 C 307 130.798, 308.148 133.027, 309.105 132.435 C 309.597 132.131, 310 132.584, 310 133.441 C 310 135.978, 310.160 136.388, 312.124 138.885 C 313.156 140.197, 314.014 141.997, 314.032 142.885 C 314.049 143.773, 314.724 145.374, 315.532 146.441 C 316.339 147.509, 317 149.003, 317 149.763 C 317 153.673, 319.038 154, 343.429 154 C 365.170 154, 369.295 153.536, 365.947 151.467 C 365.368 151.110, 365.079 150.295, 365.305 149.658 C 365.530 149.021, 364.938 147.375, 363.989 146 C 362.103 143.270, 360.474 138.980, 360.827 137.676 C 360.949 137.222, 360.602 137.128, 360.054 137.467 C 359.507 137.805, 358.753 136.826, 358.380 135.291 C 358.006 133.756, 356.401 130.041, 354.812 127.036 C 353.222 124.031, 351.803 120.789, 351.656 119.831 C 351.510 118.873, 350.609 117.225, 349.654 116.170 C 348.698 115.114, 348.035 113.856, 348.181 113.375 C 348.326 112.894, 347.631 111.282, 346.636 109.794 C 345.641 108.306, 345.081 106.678, 345.390 106.178 C 345.700 105.677, 345.081 104.478, 344.014 103.513 C 342.114 101.794, 342.145 101.712, 345.568 99.389 C 347.488 98.086, 349.384 97.125, 349.780 97.254 C 350.828 97.594, 355.409 94.171, 361.007 88.865 C 363.696 86.316, 366.217 84.516, 366.609 84.865 C 367 85.214, 367.034 84.998, 366.684 84.384 C 366.334 83.770, 366.926 82.472, 368 81.500 C 369.074 80.528, 369.757 79.416, 369.518 79.029 C 369.279 78.642, 369.830 77.260, 370.742 75.957 C 371.655 74.655, 372.496 72.894, 372.611 72.044 C 373.028 68.972, 373.882 66.088, 374.987 64.024 C 376.888 60.473, 376.474 50.884, 374.153 44.680 C 372.984 41.556, 372.316 39, 372.669 39 C 373.022 39, 372.521 38.128, 371.557 37.063 C 370.593 35.998, 370.055 34.719, 370.363 34.222 C 370.670 33.725, 369.593 32.336, 367.969 31.135 C 366.345 29.934, 365.125 28.598, 365.258 28.165 C 365.535 27.266, 357.919 20.012, 356.691 20.005 C 356.246 20.002, 356.203 19.480, 356.595 18.845 C 357.009 18.177, 356.873 17.961, 356.272 18.332 C 355.702 18.684, 354.170 18.146, 352.868 17.136 C 351.565 16.125, 349.875 15.515, 349.111 15.779 C 348.347 16.043, 347.966 15.864, 348.265 15.380 C 348.564 14.896, 347.727 14.406, 346.405 14.292 C 341.865 13.898, 341 13.665, 341 12.833 C 341 11.778, 259.287 11.726, 258.635 12.781 M 432.200 13.200 C 431.523 13.877, 431 17.122, 431 20.651 C 431 24.089, 430.485 29.286, 429.855 32.201 C 428.452 38.696, 428.356 39.861, 428.141 53 C 428.023 60.250, 427.667 63.036, 426.991 62 C 426.324 60.977, 426.220 62.060, 426.664 65.406 C 427.043 68.264, 426.936 70.080, 426.407 69.756 C 425.893 69.440, 425.374 73.809, 425.210 79.850 C 425.050 85.707, 424.528 91.947, 424.050 93.715 C 423.572 95.483, 423.372 98.858, 423.606 101.215 C 423.944 104.621, 423.819 105.090, 422.997 103.500 C 422.127 101.820, 422.038 102.004, 422.436 104.651 C 422.697 106.383, 422.434 112.908, 421.852 119.151 C 421.270 125.393, 420.796 132.750, 420.798 135.500 C 420.802 140.001, 420.736 140.151, 420.133 137 C 419.708 134.782, 419.434 137.255, 419.382 143.750 L 419.301 154 439.682 154 C 462.032 154, 460.967 154.314, 461.313 147.619 C 461.416 145.633, 461.865 144.007, 462.311 144.004 C 462.756 144.002, 462.864 140.738, 462.550 136.750 C 462.236 132.762, 462.321 130.272, 462.740 131.215 C 463.173 132.192, 463.518 129.610, 463.543 125.215 C 463.590 116.682, 464.230 111.055, 465.360 109.226 C 465.768 108.566, 465.820 105.207, 465.476 101.763 C 465.131 98.318, 465.221 96.012, 465.675 96.637 C 466.133 97.268, 466.631 92.844, 466.795 86.685 C 466.957 80.586, 467.518 75.081, 468.041 74.451 C 468.564 73.821, 469.239 65.938, 469.540 56.934 C 469.879 46.820, 470.504 40.307, 471.174 39.892 C 471.771 39.523, 472.054 37.822, 471.803 36.111 C 471.552 34.400, 471.648 33, 472.016 33 C 472.540 33, 472.620 16.140, 472.112 12.750 C 471.913 11.422, 433.546 11.854, 432.200 13.200 M 577.927 13.530 C 576.592 14.229, 574.096 15.023, 572.379 15.293 C 570.662 15.564, 568.152 16.510, 566.799 17.396 C 565.447 18.282, 564.039 18.705, 563.670 18.337 C 563.302 17.968, 563 18.218, 563 18.892 C 563 19.566, 562.550 19.840, 562 19.500 C 561.450 19.160, 561 19.328, 561 19.874 C 561 20.419, 559.987 21.172, 558.750 21.548 C 557.513 21.923, 555.487 23.157, 554.250 24.289 C 553.013 25.422, 552 26.027, 552 25.635 C 552 24.759, 550.149 26.267, 544.692 31.587 C 537.994 38.118, 533 43.828, 533 44.956 C 533 45.530, 532.550 46, 532 46 C 531.450 46, 531 46.605, 531 47.345 C 531 48.085, 530.111 49.495, 529.024 50.479 C 527.937 51.462, 527.291 52.661, 527.589 53.143 C 527.886 53.625, 527.201 55.201, 526.065 56.645 C 524.929 58.088, 523.997 59.997, 523.994 60.885 C 523.990 61.773, 523.315 63.789, 522.494 65.364 C 521.672 66.940, 521 69.779, 521 71.673 C 521 73.568, 520.663 74.909, 520.250 74.655 C 519.293 74.063, 519.087 76.036, 518.700 89.500 C 518.526 95.550, 518.777 100.770, 519.258 101.100 C 519.738 101.430, 520.479 104.259, 520.904 107.387 C 521.328 110.516, 522.199 113.599, 522.838 114.238 C 523.477 114.877, 524 116.108, 524 116.973 C 524 117.838, 525.575 120.937, 527.500 123.860 C 529.425 126.783, 531.006 129.473, 531.014 129.837 C 531.060 131.995, 544.547 144, 546.925 144 C 547.507 144, 548.545 144.900, 549.232 146 C 549.919 147.100, 551.273 148, 552.241 148 C 553.208 148, 554.890 148.890, 555.977 149.977 C 557.065 151.065, 558.608 151.704, 559.407 151.397 C 560.206 151.091, 562.579 151.663, 564.680 152.670 C 567.957 154.240, 571.131 154.500, 587 154.500 C 601.349 154.500, 606.061 154.175, 608 153.049 C 609.375 152.251, 611.513 151.533, 612.751 151.454 C 613.989 151.374, 615.873 150.520, 616.938 149.556 C 618.003 148.593, 619.292 148.063, 619.803 148.378 C 620.314 148.694, 621.538 148.063, 622.521 146.976 C 623.505 145.889, 624.815 145, 625.433 145 C 626.050 145, 627.326 144.100, 628.268 143 C 629.210 141.900, 630.547 140.987, 631.240 140.972 C 631.933 140.957, 633.850 139.569, 635.500 137.888 C 638.174 135.164, 638.484 134.217, 638.350 129.166 C 638.254 125.524, 638.450 124.393, 638.900 126 C 639.287 127.386, 639.693 123.135, 639.809 116.459 C 639.925 109.837, 640.426 103.001, 640.923 101.269 C 641.419 99.537, 641.647 96.181, 641.429 93.810 C 641.142 90.689, 641.251 90.190, 641.822 92 C 642.347 93.663, 642.615 91.739, 642.622 86.250 L 642.632 78 612.447 78 L 582.263 78 581.592 82.250 C 581.223 84.588, 580.684 90.100, 580.394 94.500 C 580.105 98.900, 579.488 103.688, 579.024 105.140 C 577.715 109.237, 579.388 110, 589.677 110 L 598.954 110 598.727 113.995 C 598.585 116.501, 598.012 117.992, 597.191 117.995 C 596.456 117.998, 596.195 117.494, 596.595 116.845 C 597.021 116.157, 596.871 115.961, 596.226 116.360 C 595.631 116.728, 592.155 117.181, 588.503 117.366 C 584.851 117.551, 582.414 117.362, 583.087 116.946 C 583.762 116.529, 582.618 116.237, 580.540 116.296 C 578.048 116.367, 576.346 115.825, 575.524 114.701 C 574.839 113.766, 573.939 113, 573.522 113 C 572.415 113, 565.500 106.771, 565.500 105.775 C 565.500 105.308, 564.881 104.545, 564.125 104.077 C 563.369 103.610, 562.627 102.105, 562.476 100.733 C 562.325 99.361, 561.526 97.172, 560.700 95.869 C 558.739 92.776, 558.880 79.310, 560.887 78.070 C 561.637 77.606, 562.240 75.939, 562.228 74.364 C 562.215 72.789, 563.032 70.600, 564.042 69.500 C 565.767 67.622, 565.993 67.133, 566.005 65.250 C 566.014 63.788, 572.921 57, 574.399 57 C 575.225 57, 576.260 56.362, 576.700 55.581 C 577.140 54.801, 579.750 53.328, 582.500 52.307 C 589.356 49.763, 608.238 49.759, 612.080 52.300 C 613.499 53.239, 614.947 53.719, 615.299 53.368 C 615.650 53.017, 617.189 53.560, 618.719 54.575 C 620.248 55.591, 622.102 56.518, 622.838 56.635 C 623.573 56.753, 624.959 57.558, 625.916 58.424 C 626.874 59.291, 628.354 60, 629.206 60 C 630.058 60, 631.315 60.675, 632 61.500 C 632.685 62.325, 634.032 63, 634.994 63 C 637.052 63, 638.582 55.502, 638.107 47.750 C 637.947 45.138, 638.195 42.998, 638.658 42.995 C 639.121 42.992, 639.638 38.744, 639.808 33.556 C 640.114 24.171, 640.101 24.112, 637.308 22.325 C 635.763 21.336, 633.904 19.846, 633.176 19.014 C 632.021 17.694, 631.951 17.692, 632.625 19 C 633.051 19.825, 631.732 19.238, 629.694 17.695 C 627.656 16.152, 625.613 15.121, 625.154 15.405 C 624.696 15.688, 622.746 15.076, 620.821 14.044 C 617.749 12.398, 615.057 12.174, 598.837 12.214 C 585.904 12.245, 579.625 12.641, 577.927 13.530 M 703.667 12.667 C 703.300 13.033, 703 15.310, 703 17.726 C 703 20.791, 702.651 21.902, 701.845 21.405 C 701.178 20.992, 700.961 21.127, 701.330 21.725 C 701.681 22.294, 701.483 28.326, 700.888 35.129 C 700.294 41.933, 699.834 49.750, 699.868 52.500 C 699.903 55.361, 699.623 56.776, 699.214 55.807 C 698.821 54.875, 698.408 58.250, 698.296 63.307 C 698.184 68.363, 697.766 74.525, 697.367 77 C 696.967 79.475, 696.679 83.750, 696.727 86.500 C 696.801 90.840, 696.701 91.104, 695.971 88.500 C 695.421 86.534, 695.326 87.876, 695.697 92.390 C 696.016 96.270, 695.878 99.043, 695.382 98.736 C 694.897 98.436, 694.485 100.961, 694.466 104.345 C 694.418 113.100, 693.635 119.998, 692.689 119.999 C 692.244 120, 692.164 123.263, 692.513 127.250 C 692.862 131.238, 692.776 133.990, 692.323 133.368 C 691.868 132.742, 691.392 137.114, 691.258 143.138 L 691.017 154.041 711.758 153.770 L 732.500 153.500 733.327 144.500 C 733.781 139.550, 734.164 133.025, 734.177 130 C 734.197 125.293, 734.297 125.005, 734.869 128 C 735.299 130.253, 735.572 127.936, 735.634 121.500 C 735.738 110.830, 736.673 101.948, 737.812 100.795 C 738.196 100.408, 746.720 99.958, 756.756 99.795 L 775.002 99.500 775.001 102.050 C 775.001 103.452, 774.565 105.035, 774.033 105.567 C 773.501 106.099, 772.809 113.727, 772.496 122.517 C 772.183 131.308, 771.530 139.625, 771.046 141 C 769.769 144.627, 769.019 150.886, 769.661 152.558 C 770.505 154.758, 811 154.702, 811 152.500 C 811 151.675, 811.468 151, 812.041 151 C 812.613 151, 813.054 149.313, 813.020 147.250 C 812.851 136.851, 814.176 118.355, 815.489 112.785 C 816.371 109.044, 816.976 101.518, 816.985 94.191 C 816.993 87.421, 817.337 82.086, 817.750 82.334 C 818.163 82.583, 818.621 80.247, 818.769 77.143 C 818.917 74.040, 819.220 70.600, 819.443 69.500 C 819.665 68.400, 819.913 62.775, 819.994 57 C 820.076 51.140, 820.472 47.345, 820.891 48.413 C 821.369 49.634, 821.647 48.368, 821.658 44.913 C 821.668 41.936, 821.967 36.800, 822.322 33.500 C 822.678 30.200, 823.088 24.125, 823.234 20 L 823.500 12.500 803.796 12.229 C 785.767 11.981, 784.012 12.109, 783.140 13.738 C 782.617 14.717, 781.864 19.789, 781.469 25.009 C 781.074 30.229, 780.367 34.983, 779.899 35.573 C 779.431 36.164, 778.820 43.333, 778.542 51.506 C 778.263 59.678, 777.657 66.743, 777.194 67.206 C 776.731 67.669, 768.286 67.924, 758.426 67.774 L 740.500 67.500 740.783 65 C 740.938 63.625, 741.209 58.900, 741.384 54.500 C 741.879 42.122, 743.155 29.938, 744.264 27 C 744.576 26.175, 745.067 23.183, 745.356 20.351 C 746.196 12.126, 745.864 12, 723.338 12 C 712.885 12, 704.033 12.300, 703.667 12.667 M 872.921 13.595 C 872.027 14.672, 871.518 18.961, 871.351 26.814 C 871.207 33.565, 870.592 39.394, 869.884 40.718 C 869.213 41.971, 868.873 43.207, 869.130 43.463 C 869.386 43.719, 878.687 43.979, 889.798 44.041 C 906.935 44.135, 910 44.377, 910 45.635 C 910 46.451, 909.663 46.909, 909.250 46.655 C 908.837 46.400, 908.493 49.186, 908.485 52.845 C 908.467 60.887, 907.689 68.076, 906.657 69.745 C 906.240 70.421, 906.212 73.747, 906.595 77.136 C 906.999 80.705, 906.915 83.070, 906.396 82.755 C 905.896 82.452, 905.393 86.866, 905.259 92.743 C 905.126 98.535, 904.536 103.855, 903.947 104.564 C 903.330 105.308, 902.722 112.245, 902.512 120.937 C 902.312 129.232, 901.658 137.505, 901.059 139.321 C 900.460 141.137, 899.864 145.070, 899.735 148.061 L 899.500 153.500 920.750 153.770 C 940.488 154.021, 942.006 153.914, 942.083 152.270 C 942.129 151.296, 942.344 149.375, 942.560 148 C 943.037 144.972, 944.930 124.446, 945.374 117.500 C 946.364 101.995, 947.278 92.138, 947.982 89.359 C 948.420 87.631, 948.598 84.031, 948.377 81.359 C 948.068 77.617, 948.207 76.960, 948.985 78.500 C 949.833 80.179, 949.917 80.019, 949.509 77.500 C 949.242 75.850, 949.513 69.775, 950.110 64 C 950.708 58.225, 951.196 51.250, 951.194 48.500 C 951.192 44.574, 951.364 44.037, 951.996 46 C 952.768 48.399, 952.805 48.409, 952.900 46.250 L 953 44 972 44 C 990.141 44, 991 43.912, 991 42.059 C 991 40.991, 991.413 39.863, 991.917 39.551 C 992.421 39.240, 992.881 32.913, 992.937 25.492 L 993.041 12 933.643 12 C 880.498 12, 874.106 12.168, 872.921 13.595 M 701 19 C 701 19.733, 701.300 20.033, 701.667 19.667 C 702.033 19.300, 702.033 18.700, 701.667 18.333 C 701.300 17.967, 701 18.267, 701 19 M 208 20.500 C 208 20.775, 208.225 21, 208.500 21 C 208.775 21, 209 20.775, 209 20.500 C 209 20.225, 208.775 20, 208.500 20 C 208.225 20, 208 20.225, 208 20.500 M 547 29.500 C 547 29.775, 547.225 30, 547.500 30 C 547.775 30, 548 29.775, 548 29.500 C 548 29.225, 547.775 29, 547.500 29 C 547.225 29, 547 29.225, 547 29.500 M 53 33 C 53 33.733, 53.300 34.033, 53.667 33.667 C 54.033 33.300, 54.033 32.700, 53.667 32.333 C 53.300 31.967, 53 32.267, 53 33 M 369 33.500 C 369 33.775, 369.225 34, 369.500 34 C 369.775 34, 370 33.775, 370 33.500 C 370 33.225, 369.775 33, 369.500 33 C 369.225 33, 369 33.225, 369 33.500 M 639 45 C 639 45.733, 639.300 46.033, 639.667 45.667 C 640.033 45.300, 640.033 44.700, 639.667 44.333 C 639.300 43.967, 639 44.267, 639 45 M 297.395 48.355 C 297.826 50.608, 297.718 51.074, 297.014 50 C 296.330 48.956, 295.996 51.390, 295.916 58 C 295.853 63.225, 295.691 68.737, 295.555 70.250 L 295.309 73 308.713 73 C 317.292 73, 321.898 72.644, 321.507 72.011 C 321.169 71.464, 321.531 71.266, 322.319 71.569 C 323.102 71.869, 324.422 71.436, 325.252 70.605 C 326.082 69.775, 327.058 69.392, 327.421 69.754 C 327.783 70.116, 328.338 69.425, 328.653 68.218 C 328.969 67.010, 329.569 66.233, 329.986 66.491 C 330.714 66.941, 334 59.512, 334 57.416 C 334 55.739, 331.561 51.016, 330.691 51.008 C 330.246 51.004, 330.129 50.601, 330.430 50.113 C 331.048 49.114, 328.776 46.940, 326.800 46.641 C 326.085 46.532, 324.948 46.099, 324.274 45.678 C 323.600 45.256, 317.140 44.979, 309.920 45.061 L 296.792 45.210 297.395 48.355 M 742 49.500 C 742 49.775, 742.225 50, 742.500 50 C 742.775 50, 743 49.775, 743 49.500 C 743 49.225, 742.775 49, 742.500 49 C 742.225 49, 742 49.225, 742 49.500 M 81 71.500 C 81 71.775, 81.225 72, 81.500 72 C 81.775 72, 82 71.775, 82 71.500 C 82 71.225, 81.775 71, 81.500 71 C 81.225 71, 81 71.225, 81 71.500 M 580 82.500 C 580 82.775, 580.225 83, 580.500 83 C 580.775 83, 581 82.775, 581 82.500 C 581 82.225, 580.775 82, 580.500 82 C 580.225 82, 580 82.225, 580 82.500 M 519 105.500 C 519 105.775, 519.225 106, 519.500 106 C 519.775 106, 520 105.775, 520 105.500 C 520 105.225, 519.775 105, 519.500 105 C 519.225 105, 519 105.225, 519 105.500 M 66 114.500 C 66 114.775, 66.225 115, 66.500 115 C 66.775 115, 67 114.775, 67 114.500 C 67 114.225, 66.775 114, 66.500 114 C 66.225 114, 66 114.225, 66 114.500 M 946 114.500 C 946 114.775, 946.225 115, 946.500 115 C 946.775 115, 947 114.775, 947 114.500 C 947 114.225, 946.775 114, 946.500 114 C 946.225 114, 946 114.225, 946 114.500 M 131 117.500 C 131 117.775, 131.225 118, 131.500 118 C 131.775 118, 132 117.775, 132 117.500 C 132 117.225, 131.775 117, 131.500 117 C 131.225 117, 131 117.225, 131 117.500 M 366 150.500 C 366 150.775, 366.225 151, 366.500 151 C 366.775 151, 367 150.775, 367 150.500 C 367 150.225, 366.775 150, 366.500 150 C 366.225 150, 366 150.225, 366 150.500 M 145 171.818 C 145 172.819, 145.637 175.856, 146.414 178.568 C 147.592 182.674, 148.251 187.390, 149.229 198.706 C 149.286 199.369, 149.649 199.717, 150.034 199.479 C 150.934 198.923, 152.186 207.890, 151.389 209.180 C 151.058 209.716, 151.570 212.203, 152.526 214.708 C 153.483 217.213, 154.318 221.182, 154.383 223.528 C 154.447 225.873, 154.903 227.547, 155.396 227.247 C 155.898 226.942, 155.997 227.876, 155.622 229.371 C 155.253 230.840, 155.449 232.971, 156.058 234.108 C 157.529 236.857, 158.222 240.546, 158.283 245.950 C 158.319 249.119, 158.558 249.839, 159.115 248.450 C 159.750 246.863, 159.897 247.059, 159.905 249.500 C 159.909 251.150, 160.367 254.932, 160.921 257.904 C 161.475 260.876, 161.650 263.758, 161.310 264.308 C 160.936 264.913, 161.205 264.991, 161.990 264.506 C 162.968 263.902, 163.166 264.351, 162.789 266.321 C 162.514 267.761, 162.674 268.702, 163.144 268.411 C 163.615 268.120, 164 270.554, 164 273.819 C 164 277.084, 164.649 281.309, 165.442 283.208 C 166.236 285.106, 167.075 289.578, 167.309 293.146 C 167.542 296.713, 168.211 300.526, 168.795 301.618 C 169.380 302.710, 170.003 305.830, 170.179 308.552 C 170.356 311.273, 170.950 313.831, 171.500 314.235 C 172.050 314.639, 185.438 314.976, 201.250 314.985 C 226.629 314.998, 230 314.817, 230 313.441 C 230 312.584, 230.382 312.118, 230.849 312.407 C 231.316 312.695, 231.735 311.603, 231.781 309.981 C 231.828 308.358, 232.537 306.072, 233.357 304.900 C 234.178 303.729, 234.582 302.073, 234.255 301.221 C 233.866 300.210, 234.062 299.920, 234.819 300.388 C 235.562 300.847, 235.775 300.577, 235.413 299.633 C 235.102 298.824, 235.585 297.036, 236.487 295.661 C 237.388 294.285, 238.309 291.712, 238.532 289.943 C 239.447 282.720, 241.202 284.957, 241.493 293.717 C 241.617 297.448, 242.231 301.767, 242.859 303.315 C 243.487 304.863, 244 308.126, 244 310.565 L 244 315 273.443 315 C 302.286 315, 302.917 314.957, 304.368 312.885 C 305.183 311.722, 305.626 310.188, 305.352 309.475 C 305.079 308.763, 305.652 306.677, 306.626 304.840 C 307.600 303.003, 308.559 300.375, 308.758 299 C 308.957 297.625, 309.768 295.503, 310.560 294.285 C 311.352 293.067, 312 291.210, 312 290.158 C 312 289.106, 312.670 287.689, 313.489 287.009 C 314.308 286.329, 314.721 285.358, 314.407 284.850 C 314.093 284.342, 314.703 282.255, 315.761 280.213 C 316.820 278.171, 317.473 275.875, 317.213 275.111 C 316.928 274.273, 317.184 273.996, 317.859 274.413 C 318.567 274.850, 318.762 274.544, 318.391 273.577 C 318.069 272.738, 318.693 270.577, 319.778 268.775 C 320.863 266.974, 321.539 264.923, 321.281 264.218 C 321.023 263.513, 321.578 261.767, 322.514 260.339 C 323.449 258.911, 324.435 256.338, 324.703 254.621 C 324.972 252.904, 325.788 250.375, 326.517 249 C 328.481 245.297, 329.343 242.667, 329.091 241.150 C 328.952 240.318, 329.335 240.089, 330.088 240.554 C 330.873 241.040, 331.051 240.892, 330.588 240.142 C 330.191 239.500, 330.612 237.518, 331.524 235.737 C 332.436 233.957, 333.409 231.166, 333.685 229.535 C 333.962 227.904, 334.821 225.667, 335.594 224.562 C 336.367 223.458, 337 221.405, 337 220 C 337 218.595, 337.718 216.420, 338.596 215.166 C 339.474 213.913, 340.412 211.493, 340.681 209.788 C 340.949 208.083, 341.806 206.051, 342.585 205.273 C 343.363 204.494, 344 202.839, 344 201.595 C 344 200.351, 344.337 198.996, 344.750 198.583 C 345.163 198.171, 345.537 197.533, 345.582 197.167 C 345.878 194.741, 347.561 190.123, 348.901 188.055 C 349.773 186.710, 350.342 184.759, 350.166 183.719 C 349.989 182.679, 350.595 181, 351.512 179.987 C 352.429 178.974, 353.326 176.313, 353.506 174.073 L 353.833 170 332.166 170.015 C 311.280 170.030, 306.982 170.544, 308.410 172.854 C 308.776 173.447, 308.091 175.859, 306.887 178.216 C 305.683 180.572, 304.637 183.625, 304.562 185 C 304.487 186.375, 303.841 188.554, 303.128 189.842 C 302.415 191.130, 301.658 193.555, 301.446 195.230 C 301.234 196.905, 300.353 199.058, 299.488 200.013 C 298.624 200.968, 297.989 202.144, 298.077 202.625 C 298.556 205.243, 297.869 209.037, 297.011 208.507 C 296.424 208.144, 296.290 208.593, 296.681 209.612 C 297.046 210.561, 296.929 211.075, 296.420 210.761 C 295.914 210.450, 295.401 211.563, 295.279 213.236 C 295.158 214.909, 294.326 217.087, 293.431 218.076 C 292.536 219.065, 292.111 220.370, 292.486 220.977 C 292.861 221.584, 291.978 224.355, 290.524 227.136 C 289.070 229.917, 288.402 231.869, 289.040 231.475 C 289.915 230.935, 289.921 231.279, 289.065 232.879 C 288.440 234.046, 288.240 235, 288.620 235 C 288.999 235, 288.574 235.814, 287.673 236.808 C 286.773 237.803, 285.837 240.166, 285.593 242.058 C 285.349 243.951, 284.443 246.850, 283.581 248.500 C 282.718 250.150, 282.010 252.233, 282.006 253.128 C 282.003 254.023, 281.391 256.273, 280.648 258.128 C 279.904 259.983, 278.933 262.400, 278.490 263.500 C 278.047 264.600, 277.786 266.108, 277.909 266.850 C 278.048 267.682, 277.665 267.911, 276.912 267.446 C 276.204 267.008, 275.948 267.107, 276.303 267.680 C 276.969 268.759, 275.032 276, 274.076 276 C 272.433 276, 270.706 268.794, 270.398 260.650 C 270.207 255.617, 269.630 250.600, 269.115 249.500 C 267.713 246.508, 265.892 233.278, 266.532 230.727 C 266.838 229.502, 266.394 226.531, 265.545 224.124 C 264.695 221.718, 264 218.680, 264 217.374 L 264 215 246.035 215 C 228.439 215, 228.045 215.046, 226.829 217.250 C 226.146 218.488, 225.478 221.015, 225.343 222.867 C 225.209 224.718, 224.391 227.016, 223.525 227.972 C 222.573 229.024, 222.226 230.425, 222.646 231.519 C 223.120 232.756, 222.974 233.102, 222.181 232.612 C 221.436 232.152, 221.226 232.425, 221.592 233.378 C 221.904 234.193, 221.344 236.579, 220.347 238.680 C 219.350 240.781, 218.671 243.309, 218.838 244.297 C 219.005 245.286, 218.210 247.674, 217.071 249.604 C 215.932 251.535, 214.986 254.551, 214.968 256.307 C 214.951 258.063, 214.276 260.374, 213.468 261.441 C 212.661 262.509, 212 264.395, 212 265.632 C 212 266.870, 211.519 268.179, 210.932 268.542 C 210.344 268.905, 210.114 269.855, 210.420 270.653 C 210.727 271.451, 210.579 271.858, 210.093 271.558 C 209.607 271.257, 208.943 271.707, 208.616 272.558 C 208.290 273.408, 208.439 273.847, 208.947 273.533 C 209.884 272.954, 208.572 278.762, 207.531 279.802 C 206.956 280.378, 206.643 278.352, 206.960 276.100 C 207.068 275.329, 206.416 272.759, 205.510 270.387 C 204.605 268.016, 203.766 263.380, 203.646 260.086 C 203.527 256.791, 203.138 253.805, 202.783 253.450 C 202.428 253.095, 202.360 252.226, 202.631 251.519 C 202.902 250.812, 202.483 248.698, 201.699 246.821 C 200.915 244.945, 200.324 241.560, 200.386 239.299 C 200.449 237.038, 200.113 235.428, 199.641 235.721 C 199.168 236.014, 199.095 234.396, 199.479 232.127 C 199.876 229.773, 199.780 228, 199.255 228 C 198.748 228, 198.294 227.438, 198.247 226.750 C 198.199 226.063, 197.872 224.375, 197.520 223 C 197.167 221.625, 196.818 217.575, 196.743 214 C 196.651 209.595, 196.379 208.306, 195.902 210 C 195.346 211.971, 195.209 211.634, 195.256 208.410 C 195.289 206.160, 195.046 203.883, 194.716 203.349 C 194.386 202.816, 194.009 200.020, 193.877 197.137 C 193.745 194.253, 193.311 191.692, 192.913 191.446 C 192.050 190.913, 191.012 183.484, 190.824 176.500 C 190.750 173.750, 190.197 171.169, 189.595 170.765 C 188.993 170.361, 178.713 170.024, 166.750 170.015 C 146.385 170.001, 145 170.116, 145 171.818 M 424.122 170.895 C 423.364 171.380, 423.012 172.210, 423.339 172.740 C 423.667 173.270, 423.050 175.441, 421.968 177.564 C 420.885 179.686, 420 182.004, 420 182.715 C 420 183.426, 419.100 185.686, 418 187.739 C 416.900 189.791, 416 192.169, 416 193.024 C 416 193.878, 415.100 196.342, 414 198.500 C 412.900 200.658, 412 203.029, 412 203.770 C 412 204.512, 411.606 204.875, 411.125 204.577 C 410.644 204.280, 410.250 205.168, 410.250 206.551 C 410.250 207.935, 409.597 209.839, 408.800 210.783 C 408.002 211.727, 407.301 213.482, 407.242 214.683 C 407.183 215.883, 406.350 218.062, 405.392 219.524 C 404.434 220.987, 403.529 223.316, 403.382 224.700 C 403.234 226.085, 402.413 227.991, 401.557 228.937 C 400.700 229.883, 400 231.636, 400 232.832 C 400 234.029, 399.100 236.686, 398 238.739 C 396.900 240.791, 396 243.291, 396 244.294 C 396 245.297, 395.577 245.857, 395.061 245.537 C 394.544 245.218, 394.133 245.754, 394.148 246.728 C 394.188 249.449, 391.445 256.112, 390.623 255.290 C 390.222 254.889, 390.186 255.322, 390.543 256.251 C 390.929 257.258, 390.367 258.989, 389.152 260.534 C 388.030 261.961, 387.346 263.738, 387.632 264.483 C 387.918 265.228, 387.348 267.066, 386.365 268.565 C 385.382 270.065, 384.448 272.239, 384.288 273.396 C 384.129 274.553, 382.917 277.750, 381.595 280.500 C 380.273 283.250, 378.888 286.845, 378.517 288.490 C 378.145 290.134, 377.399 291.754, 376.857 292.088 C 376.316 292.423, 375.635 294.227, 375.343 296.098 C 375.051 297.969, 374.313 300.106, 373.703 300.848 C 373.092 301.589, 372.451 303.124, 372.278 304.259 C 372.105 305.395, 371.128 307.713, 370.106 309.412 C 366.793 314.922, 367.090 315, 391.423 315 L 413.679 315 414.993 312.250 C 415.715 310.738, 416.387 308.825, 416.486 308 C 416.854 304.932, 418.167 302, 419.174 302 C 419.746 302, 419.955 301.325, 419.638 300.500 C 419.322 299.675, 419.525 299, 420.090 299 C 420.656 299, 420.843 298.555, 420.507 298.011 C 420.171 297.467, 420.645 295.442, 421.562 293.511 L 423.228 290 443.364 290.015 C 454.439 290.024, 464.127 290.428, 464.893 290.913 C 465.710 291.430, 466.059 292.666, 465.737 293.899 C 465.434 295.056, 465.595 295.751, 466.093 295.442 C 466.592 295.134, 466.998 297.269, 466.995 300.191 C 466.992 303.111, 467.756 307.637, 468.693 310.250 L 470.395 315 492.031 315 C 503.931 315, 513.951 314.716, 514.298 314.369 C 514.645 314.021, 514.503 312.940, 513.981 311.965 C 513.460 310.990, 512.913 308.170, 512.766 305.698 C 512.620 303.226, 512.092 301.453, 511.592 301.758 C 511.093 302.063, 510.939 301.342, 511.249 300.155 C 511.560 298.968, 511.405 298.249, 510.907 298.558 C 510.408 298.866, 510 296.819, 510 294.009 C 510 291.200, 509.302 287.550, 508.448 285.899 C 507.594 284.249, 506.721 280.187, 506.508 276.874 C 506.295 273.560, 505.625 270.253, 505.020 269.524 C 504.415 268.796, 503.826 266.176, 503.710 263.704 C 503.595 261.232, 503.092 259.457, 502.592 259.761 C 502.093 260.064, 501.941 259.332, 502.255 258.134 C 502.568 256.936, 502.164 254.631, 501.356 253.012 C 500.549 251.394, 499.836 247.790, 499.773 245.003 C 499.696 241.646, 499.348 240.369, 498.742 241.218 C 498.116 242.095, 497.982 241.790, 498.319 240.251 C 498.590 239.014, 498.404 237.750, 497.906 237.442 C 497.408 237.134, 496.993 235.671, 496.985 234.191 C 496.977 232.711, 496.323 229.639, 495.530 227.365 C 494.738 225.091, 493.957 220.523, 493.795 217.214 C 493.633 213.905, 493.199 211.382, 492.831 211.607 C 492.066 212.077, 491.258 208.678, 490.447 201.576 C 490.137 198.868, 489.374 195.718, 488.750 194.576 C 488.127 193.434, 487.508 189.845, 487.375 186.600 C 487.242 183.355, 486.701 180.430, 486.172 180.100 C 485.643 179.770, 484.812 177.475, 484.324 175 L 483.437 170.500 454.469 170.257 C 438.536 170.123, 424.880 170.410, 424.122 170.895 M 547.079 170.750 C 547.122 171.162, 548.463 173.525, 550.059 176 C 551.654 178.475, 553.391 181.469, 553.918 182.653 C 554.445 183.837, 555.362 185.106, 555.955 185.472 C 556.548 185.838, 556.774 186.557, 556.457 187.069 C 556.141 187.581, 556.385 188, 557 188 C 557.615 188, 557.869 188.403, 557.565 188.895 C 557.260 189.388, 557.650 190.035, 558.430 190.335 C 559.210 190.634, 560.646 192.594, 561.620 194.690 C 562.595 196.785, 563.979 198.860, 564.696 199.300 C 565.413 199.740, 566 200.732, 566 201.504 C 566 202.277, 567.149 204.058, 568.554 205.463 C 569.958 206.868, 570.861 208.416, 570.560 208.904 C 570.258 209.391, 570.684 210.048, 571.506 210.364 C 572.328 210.679, 573 211.743, 573 212.728 C 573 213.713, 573.900 215.081, 575 215.768 C 576.100 216.455, 577 217.495, 577 218.078 C 577 218.662, 578.350 221.102, 580 223.500 C 581.650 225.898, 583 228.342, 583 228.930 C 583 229.519, 583.441 230, 583.981 230 C 584.520 230, 585.236 231.092, 585.571 232.428 C 585.906 233.763, 586.815 235.099, 587.590 235.396 C 588.366 235.694, 589 236.571, 589 237.346 C 589 238.121, 589.675 239.315, 590.500 240 C 591.325 240.685, 592 242.104, 592 243.154 C 592 244.204, 592.732 245.344, 593.626 245.687 C 595.009 246.217, 595.159 247.447, 594.633 253.905 C 593.901 262.886, 593.699 264.092, 592.645 265.778 C 592.206 266.481, 592.108 270.081, 592.428 273.778 C 592.815 278.249, 592.700 279.830, 592.085 278.500 C 591.440 277.105, 591.321 278.020, 591.692 281.522 C 591.985 284.285, 591.688 289.910, 591.033 294.022 C 588.193 311.836, 588.057 313.417, 589.295 314.203 C 589.958 314.625, 599.837 314.976, 611.250 314.985 L 632 315 632.100 312.250 L 632.199 309.500 633.005 312 C 633.502 313.542, 633.624 312.010, 633.323 308 C 633.055 304.423, 633.210 302.019, 633.668 302.653 C 634.137 303.302, 634.470 300.463, 634.430 296.153 C 634.392 291.944, 634.961 286.250, 635.695 283.500 C 636.477 280.574, 636.836 275.804, 636.562 272 C 636.208 267.087, 636.317 266.233, 637.011 268.500 C 637.829 271.176, 637.879 271.052, 637.468 267.351 C 636.747 260.846, 638.131 248.012, 639.725 246.418 C 640.505 245.638, 640.817 245, 640.418 245 C 640.020 245, 640.663 244.160, 641.847 243.133 C 643.031 242.106, 644 240.793, 644 240.216 C 644 239.639, 644.337 239.017, 644.750 238.833 C 645.163 238.650, 647.266 236.155, 649.425 233.290 C 651.584 230.424, 653.946 227.851, 654.675 227.571 C 655.404 227.292, 656 226.568, 656 225.964 C 656 224.677, 664.989 213.413, 665.023 214.658 C 665.035 215.121, 665.714 214.146, 666.531 212.490 C 667.349 210.835, 669.761 207.572, 671.893 205.240 C 674.025 202.908, 675.483 200.985, 675.134 200.967 C 674.786 200.948, 675.400 200.158, 676.500 199.210 C 677.600 198.263, 680.951 194.228, 683.946 190.244 C 686.941 186.260, 689.754 183, 690.196 183 C 690.638 183, 691 182.347, 691 181.550 C 691 180.752, 691.585 179.740, 692.300 179.300 C 694.003 178.253, 698 172.499, 698 171.096 C 698 170.331, 690.583 170, 673.465 170 C 652.563 170, 648.565 170.239, 646.465 171.615 C 645.109 172.503, 644 173.784, 644 174.460 C 644 175.137, 643.118 176.488, 642.040 177.464 C 640.962 178.440, 640.133 179.522, 640.198 179.869 C 640.445 181.178, 638.758 183.968, 638.002 183.501 C 637.568 183.233, 636.927 184.154, 636.577 185.548 C 636.228 186.942, 635.553 187.842, 635.077 187.548 C 634.602 187.254, 633.947 188.023, 633.622 189.257 C 633.079 191.316, 626.262 201.237, 622.700 205.151 C 621.874 206.059, 620.898 207.747, 620.531 208.901 C 620.165 210.056, 619.532 211, 619.125 211 C 618.346 211, 614.441 202.780, 614.903 202.112 C 615.050 201.898, 614.756 201.448, 614.249 201.112 C 612.848 200.182, 607.700 191, 608.579 191 C 609.002 191, 608.366 189.954, 607.165 188.676 C 605.964 187.398, 605.286 186.048, 605.658 185.676 C 606.029 185.304, 605.782 185, 605.108 185 C 604.434 185, 604.160 184.550, 604.500 184 C 604.840 183.450, 604.730 183, 604.255 183 C 603.781 183, 602.178 180.750, 600.693 178 C 599.207 175.250, 598.251 173, 598.567 173 C 598.884 173, 598.468 172.325, 597.643 171.500 C 596.391 170.248, 592.079 170, 571.571 170 C 558.057 170, 547.035 170.338, 547.079 170.750 M 785.798 171.712 C 781.045 172.436, 780.781 180, 785.508 180 C 786.814 180, 788.160 180.450, 788.500 181 C 789.442 182.524, 794.665 182.192, 796.357 180.500 C 797.518 179.340, 800.476 179, 809.429 179 L 821 179 821 209.857 L 821 240.713 810.953 250.107 C 805.427 255.273, 800.754 259.636, 800.567 259.803 C 800.380 259.970, 795.226 255.262, 789.114 249.342 L 778 238.577 778 214.848 C 778 201.659, 777.595 190.868, 777.089 190.555 C 776.293 190.063, 760.055 204.982, 744.250 220.727 L 739 225.957 739 242.382 L 739 258.807 765.750 284.761 C 793.650 311.831, 799.801 317.523, 800.464 316.883 C 800.682 316.672, 806.096 311.360, 812.494 305.079 L 824.127 293.658 835.945 305.445 C 844.992 314.469, 848.126 317.029, 849.313 316.365 C 850.165 315.888, 857.309 309.198, 865.189 301.499 C 873.068 293.799, 885.941 281.298, 893.794 273.718 C 901.648 266.138, 908.507 258.796, 909.037 257.403 C 909.567 256.010, 910 248.466, 910 240.639 L 910 226.409 891.868 208.955 C 881.895 199.355, 873.120 191.140, 872.368 190.700 C 871.227 190.033, 871 193.839, 871 213.676 L 871 237.451 859.329 248.770 L 847.659 260.089 843.079 255.691 C 840.561 253.272, 835.913 248.889, 832.750 245.951 L 827 240.610 827 209.805 L 827 179 838 179 C 844.319 179, 849 179.406, 849 179.955 C 849 181.442, 855.972 182.428, 857.275 181.125 C 857.894 180.506, 859.687 180, 861.260 180 C 863.954 180, 864.103 179.782, 863.810 176.250 C 863.500 172.501, 863.498 172.500, 857.649 171.573 C 853.454 170.908, 851.263 170.979, 849.912 171.823 C 847.483 173.340, 797 173.509, 797 172 C 797 171.027, 791.257 170.879, 785.798 171.712 M 146 183.500 C 146 183.775, 146.225 184, 146.500 184 C 146.775 184, 147 183.775, 147 183.500 C 147 183.225, 146.775 183, 146.500 183 C 146.225 183, 146 183.225, 146 183.500 M 349 185.500 C 349 185.775, 349.225 186, 349.500 186 C 349.775 186, 350 185.775, 350 185.500 C 350 185.225, 349.775 185, 349.500 185 C 349.225 185, 349 185.225, 349 185.500 M 414 195.500 C 414 195.775, 414.225 196, 414.500 196 C 414.775 196, 415 195.775, 415 195.500 C 415 195.225, 414.775 195, 414.500 195 C 414.225 195, 414 195.225, 414 195.500 M 758.250 216.069 L 746 228.129 746 242.168 L 746 256.206 752.828 262.853 C 756.583 266.509, 765.471 275.082, 772.578 281.903 C 779.685 288.725, 788.764 297.491, 792.754 301.383 L 800.009 308.459 811.270 297.229 C 817.464 291.053, 823.199 286.017, 824.016 286.037 C 824.832 286.058, 830.643 291.026, 836.929 297.079 L 848.358 308.083 853.929 302.703 C 856.993 299.744, 865.800 291.206, 873.500 283.730 C 881.200 276.254, 890.763 267.056, 894.750 263.291 L 902 256.445 902 242.149 L 902 227.852 889.897 216.176 C 883.241 209.754, 877.391 204.350, 876.897 204.167 C 876.387 203.977, 876.009 211.957, 876.020 222.667 L 876.040 241.500 862.442 254.750 C 854.963 262.038, 848.542 267.994, 848.172 267.986 C 847.802 267.979, 842.325 263.085, 836 257.111 L 824.500 246.249 821.856 248.375 C 820.401 249.544, 814.869 254.511, 809.561 259.414 L 799.910 268.329 795.705 264.205 C 793.392 261.937, 787.112 255.843, 781.750 250.662 L 772 241.243 772 222.622 C 772 212.380, 771.663 204.002, 771.250 204.004 C 770.837 204.007, 764.987 209.436, 758.250 216.069 M 449.407 214.500 C 448.955 216.150, 448.709 218.108, 448.860 218.850 C 449.031 219.696, 448.672 219.915, 447.897 219.436 C 447.054 218.915, 446.849 219.163, 447.252 220.214 C 447.577 221.062, 447.432 222.168, 446.928 222.672 C 446.424 223.176, 445.914 224.774, 445.794 226.222 C 445.674 227.671, 445.268 228.666, 444.893 228.434 C 444.034 227.903, 443 230.514, 443 233.214 C 443 234.341, 442.063 236.780, 440.917 238.634 C 439.772 240.487, 439.023 242.565, 439.253 243.252 C 439.483 243.938, 438.644 246.436, 437.387 248.802 C 433.806 255.547, 434.450 256, 447.607 256 C 454.946 256, 459 255.624, 459 254.943 C 459 252.887, 456.854 244.475, 455.864 242.653 C 455.313 241.637, 454.677 237.419, 454.452 233.280 C 454.226 229.142, 453.544 225.155, 452.935 224.422 C 452.326 223.688, 452.118 222.618, 452.473 222.044 C 452.828 221.470, 452.614 221, 451.999 221 C 451.342 221, 451.055 219.863, 451.303 218.250 C 451.535 216.738, 451.389 214.600, 450.977 213.500 C 450.309 211.715, 450.141 211.822, 449.407 214.500 M 226 219.500 C 226 219.775, 226.225 220, 226.500 220 C 226.775 220, 227 219.775, 227 219.500 C 227 219.225, 226.775 219, 226.500 219 C 226.225 219, 226 219.225, 226 219.500 M 293 219.500 C 293 219.775, 293.225 220, 293.500 220 C 293.775 220, 294 219.775, 294 219.500 C 294 219.225, 293.775 219, 293.500 219 C 293.225 219, 293 219.225, 293 219.500 M 496.079 226.583 C 496.127 227.748, 496.364 227.985, 496.683 227.188 C 496.972 226.466, 496.936 225.603, 496.604 225.271 C 496.272 224.939, 496.036 225.529, 496.079 226.583 M 752.667 226.667 C 752.300 227.033, 752 228.357, 752 229.608 C 752 230.859, 751.550 232.160, 751 232.500 C 747.860 234.440, 751.303 243.310, 757.595 249.494 C 772.416 264.058, 802.243 292.539, 802.939 292.790 C 803.380 292.950, 808.138 288.775, 813.512 283.513 C 823.052 274.173, 823.331 273.989, 825.288 275.723 C 826.391 276.700, 830.858 281.015, 835.215 285.311 C 839.572 289.606, 843.514 292.981, 843.976 292.811 C 846.157 292.003, 893.138 245.430, 894.475 242.750 C 895.316 241.064, 896 237.086, 896 233.882 C 896 229.008, 895.662 227.890, 893.907 226.950 C 892.756 226.334, 890.763 226.094, 889.479 226.416 C 887.500 226.913, 887.037 227.853, 886.447 232.579 C 886.026 235.949, 886.172 239.082, 886.816 240.496 C 887.775 242.600, 887.358 243.317, 882.691 247.590 C 879.836 250.205, 871.630 258.004, 864.456 264.922 C 857.282 271.840, 849.614 279.187, 847.415 281.249 L 843.418 284.998 833.511 275.485 L 823.604 265.973 819.079 270.236 C 816.590 272.581, 814.317 274.742, 814.027 275.037 C 813.737 275.332, 811.131 277.762, 808.236 280.437 L 802.972 285.300 790.736 273.308 C 784.006 266.712, 774.054 257.049, 768.621 251.834 C 759.422 243.004, 758.825 242.196, 759.953 240.088 C 761.361 237.456, 760.415 227.927, 758.629 226.765 C 757.211 225.843, 753.551 225.782, 752.667 226.667 M 267 232.500 C 267 232.775, 267.225 233, 267.500 233 C 267.775 233, 268 232.775, 268 232.500 C 268 232.225, 267.775 232, 267.500 232 C 267.225 232, 267 232.225, 267 232.500 M 267 234.500 C 267 234.775, 267.225 235, 267.500 235 C 267.775 235, 268 234.775, 268 234.500 C 268 234.225, 267.775 234, 267.500 234 C 267.225 234, 267 234.225, 267 234.500 M 457 253.500 C 457 253.775, 457.225 254, 457.500 254 C 457.775 254, 458 253.775, 458 253.500 C 458 253.225, 457.775 253, 457.500 253 C 457.225 253, 457 253.225, 457 253.500 M 161 266.500 C 161 266.775, 161.225 267, 161.500 267 C 161.775 267, 162 266.775, 162 266.500 C 162 266.225, 161.775 266, 161.500 266 C 161.225 266, 161 266.225, 161 266.500 M 273 279 C 273 279.733, 273.300 280.033, 273.667 279.667 C 274.033 279.300, 274.033 278.700, 273.667 278.333 C 273.300 277.967, 273 278.267, 273 279 M 313 285.500 C 313 285.775, 313.225 286, 313.500 286 C 313.775 286, 314 285.775, 314 285.500 C 314 285.225, 313.775 285, 313.500 285 C 313.225 285, 313 285.225, 313 285.500 M 679.500 335.023 C 675.650 336.085, 671.951 336.759, 671.279 336.520 C 670.607 336.281, 669.424 336.719, 668.650 337.493 C 667.875 338.268, 665.950 339.220, 664.371 339.609 C 662.792 339.998, 660.487 340.972, 659.250 341.773 C 658.013 342.574, 657 342.884, 657 342.462 C 657 342.040, 656.129 342.698, 655.064 343.926 C 653.999 345.154, 652.438 346.260, 651.594 346.383 C 649.271 346.724, 629.425 366.306, 629.096 368.582 C 628.975 369.418, 625.543 374.502, 624.688 375.112 C 624.216 375.448, 623.862 376.123, 623.903 376.612 C 624.049 378.387, 622.841 381, 621.874 381 C 621.328 381, 621.152 381.437, 621.482 381.971 C 621.812 382.504, 621.311 384.417, 620.369 386.221 C 619.428 388.024, 618.540 390.400, 618.396 391.500 C 617.316 399.778, 616.616 403.119, 615.867 403.582 C 614.687 404.311, 614.761 419.361, 615.951 420.551 C 616.475 421.075, 617.037 423.819, 617.201 426.651 C 617.366 429.482, 617.896 431.556, 618.380 431.260 C 618.864 430.964, 619.049 431.347, 618.792 432.111 C 618.535 432.875, 619.160 434.992, 620.182 436.815 C 621.203 438.637, 621.735 440.620, 621.365 441.219 C 620.972 441.854, 621.152 442.024, 621.795 441.627 C 622.486 441.200, 623.146 442.261, 623.559 444.463 C 623.922 446.399, 624.588 447.755, 625.038 447.477 C 625.488 447.199, 626.144 447.877, 626.495 448.984 C 627.263 451.403, 641.335 466, 642.900 466 C 643.505 466, 644 466.450, 644 467 C 644 467.550, 644.590 468, 645.311 468 C 646.033 468, 647.608 468.918, 648.811 470.039 C 650.015 471.160, 651 471.820, 651 471.504 C 651 471.188, 652.013 471.490, 653.250 472.175 C 654.487 472.859, 656.108 473.295, 656.850 473.143 C 657.593 472.991, 657.946 473.278, 657.635 473.782 C 657.324 474.286, 658.435 474.736, 660.104 474.784 C 661.773 474.831, 663.849 475.460, 664.717 476.180 C 667.086 478.146, 699.446 478.338, 703.179 476.407 C 704.684 475.629, 707.172 474.854, 708.708 474.685 C 710.243 474.516, 712.625 473.686, 714 472.839 C 720.538 468.816, 724.063 467.109, 723.479 468.248 C 723.127 468.937, 724 468.237, 725.419 466.694 C 727.596 464.328, 728 462.948, 728 457.878 C 728 454.573, 728.526 450.886, 729.170 449.684 C 730.266 447.636, 731.051 429.037, 730.160 426.207 C 729.839 425.187, 729.409 425.223, 728.126 426.378 C 727.232 427.184, 725.825 427.990, 725 428.171 C 724.175 428.352, 723.275 428.735, 723 429.023 C 721.480 430.613, 716.820 433, 715.235 433 C 714.226 433, 712.972 433.415, 712.450 433.921 C 710.140 436.161, 698.052 439.226, 690.500 439.487 C 681.778 439.789, 674.797 439.137, 675.449 438.083 C 675.676 437.716, 674.939 437.346, 673.811 437.261 C 671.238 437.067, 663.860 432.036, 664.539 430.938 C 664.815 430.490, 664.329 429.724, 663.458 429.237 C 662.587 428.749, 661.770 427.642, 661.643 426.776 C 661.516 425.910, 660.939 424.594, 660.361 423.851 C 658.217 421.094, 657.660 418.281, 657.523 409.500 C 657.428 403.460, 657.873 399.349, 658.877 397 C 659.699 395.075, 660.288 393.163, 660.186 392.750 C 660.084 392.337, 660.477 392, 661.059 392 C 661.641 392, 661.847 391.562, 661.516 391.027 C 661.186 390.491, 661.834 389.266, 662.957 388.304 C 664.081 387.343, 665 386.063, 665 385.462 C 665 384.462, 671.836 377.671, 673 377.515 C 673.275 377.478, 674.752 376.611, 676.281 375.589 C 677.811 374.566, 679.350 374.017, 679.701 374.368 C 680.053 374.719, 681.485 374.257, 682.884 373.341 C 685.959 371.326, 701.377 371.061, 704.929 372.962 C 706.169 373.626, 708.555 374.342, 710.230 374.554 C 711.905 374.766, 714.086 375.673, 715.075 376.568 C 716.064 377.463, 717.299 377.933, 717.819 377.612 C 718.339 377.290, 719.901 377.921, 721.290 379.014 C 722.679 380.106, 724.424 381, 725.167 381 C 725.911 381, 727.017 381.797, 727.625 382.771 C 728.233 383.745, 729.860 384.635, 731.241 384.749 C 733.447 384.932, 733.851 384.444, 734.574 380.729 C 735.027 378.403, 735.434 375.736, 735.479 374.803 C 735.524 373.870, 735.884 372.783, 736.280 372.387 C 736.676 371.991, 736.986 366.004, 736.968 359.083 C 736.936 346.287, 736.096 343, 732.861 343 C 732.080 343, 730.810 342.124, 730.039 341.054 C 729.267 339.983, 728.248 339.347, 727.774 339.640 C 727.300 339.933, 725.823 339.459, 724.491 338.586 C 723.160 337.714, 721.030 337, 719.758 337 C 718.486 337, 716.374 336.250, 715.064 335.332 C 711.271 332.676, 688.717 332.479, 679.500 335.023 M 485.750 334.673 L 477 335.078 476.991 343.289 C 476.981 352.929, 475.962 362.557, 475.100 361.162 C 474.768 360.624, 474.366 363.405, 474.208 367.342 C 474.050 371.279, 473.688 377.875, 473.404 382 C 473.120 386.125, 472.936 391.453, 472.995 393.840 C 473.053 396.228, 472.741 397.958, 472.301 397.686 C 471.860 397.414, 471.495 399.061, 471.489 401.345 C 471.483 403.630, 471.100 409.775, 470.638 415 C 470.176 420.225, 469.798 426.525, 469.797 429 C 469.796 433.480, 469.792 433.484, 469.016 430 C 468.402 427.245, 468.258 427.991, 468.340 433.500 C 468.484 443.172, 467.061 459.060, 465.821 461.628 C 465.161 462.994, 465.098 466.036, 465.646 470.128 L 466.500 476.500 516.500 476.500 L 566.500 476.500 567.642 470 C 568.270 466.425, 568.833 460.714, 568.892 457.309 C 568.951 453.904, 569.450 450.840, 570 450.500 C 571.442 449.609, 571.233 445.005, 569.750 444.971 C 569.063 444.956, 555.604 444.968, 539.843 444.999 C 508.841 445.060, 509.547 445.192, 511.124 439.611 C 511.573 438.022, 511.692 433.972, 511.388 430.611 C 510.971 425.992, 511.108 424.866, 511.948 426 C 512.823 427.180, 512.924 426.913, 512.422 424.750 L 511.783 422 531.269 422 C 545.649 422, 551.022 421.672, 551.772 420.750 C 552.331 420.063, 552.955 412.863, 553.158 404.750 L 553.527 390 534.823 390 C 524.501 390, 515.863 389.587, 515.549 389.079 C 515.236 388.572, 515.277 383.622, 515.640 378.079 L 516.301 368 545.495 368 C 579.793 368, 578.685 368.332, 577.449 358.439 C 577.043 355.185, 577.115 352.949, 577.617 353.253 C 578.103 353.547, 578.543 349.561, 578.596 344.394 L 578.691 335 550.004 335 C 534.226 335, 515.283 334.835, 507.908 334.634 C 500.534 334.433, 490.563 334.451, 485.750 334.673 M 307.875 336 C 307.632 337.947, 307.462 338.511, 306.820 339.517 C 306.462 340.077, 306.122 346.714, 306.064 354.267 L 305.959 368 324.342 368 L 342.725 368 343.295 373.250 C 343.925 379.048, 342.752 393.992, 341.116 401 C 340.539 403.475, 340.342 408.155, 340.679 411.399 C 341.031 414.791, 340.911 417.062, 340.396 416.742 C 339.895 416.432, 339.650 418.558, 339.841 421.564 C 340.028 424.521, 339.444 429.883, 338.542 433.479 C 337.409 437.995, 337.095 441.946, 337.527 446.258 C 337.870 449.691, 337.779 451.987, 337.325 451.361 C 336.869 450.731, 336.462 454.758, 336.416 460.367 C 336.368 466.072, 335.815 471.477, 335.153 472.714 C 333.175 476.411, 336.152 477, 356.812 477 C 371.747 477, 375.999 476.706, 376.907 475.613 C 378.023 474.267, 378.715 466.924, 379.084 452.500 C 379.232 446.727, 379.393 446.113, 380.001 449 C 380.581 451.753, 380.716 451.113, 380.634 446 C 380.508 438.101, 381.907 420.071, 382.807 418 C 383.166 417.175, 383.494 413.575, 383.537 410 C 383.644 401.074, 385.024 384.825, 385.831 383 C 386.196 382.175, 386.496 378.575, 386.497 375 L 386.500 368.500 405.614 368.229 C 422.523 367.989, 424.916 367.751, 426.353 366.162 C 427.663 364.715, 428.041 361.515, 428.299 349.683 L 428.620 335 368.310 335 C 328.853 335, 307.957 335.346, 307.875 336 M 792.902 337.750 C 792.325 339.262, 792.091 342.300, 792.381 344.500 C 793.091 349.877, 790.985 371.598, 789.524 373.961 C 789.147 374.571, 788.862 380.535, 788.890 387.215 C 788.921 394.515, 788.351 401.981, 787.460 405.930 C 786.641 409.558, 785.835 419.081, 785.658 427.193 C 785.468 435.949, 784.894 442.423, 784.237 443.214 C 783.607 443.973, 782.861 451.224, 782.494 460.135 L 781.853 475.728 784.177 476.351 C 785.454 476.693, 794.432 476.979, 804.128 476.986 C 818.954 476.998, 821.963 476.750, 823.061 475.426 C 823.945 474.361, 824.302 471.177, 824.166 465.565 C 824.049 460.740, 824.637 454.399, 825.573 450.389 C 826.562 446.155, 827.153 439.375, 827.106 432.795 L 827.030 422.091 846.515 422.091 L 866 422.091 865.930 425.295 C 865.870 428, 865.724 428.188, 864.993 426.500 C 864.429 425.199, 864.326 426.161, 864.699 429.250 C 865.014 431.863, 864.873 434, 864.386 434 C 863.899 434, 863.479 436.137, 863.454 438.750 C 863.360 448.392, 862.645 456.102, 861.794 456.627 C 861.313 456.924, 861.228 459.897, 861.606 463.233 C 862.033 467.011, 861.932 469.076, 861.337 468.708 C 860.756 468.349, 860.600 469.760, 860.941 472.309 L 861.500 476.500 881.487 476.500 L 901.473 476.500 902.821 473.688 C 903.669 471.917, 904.321 465.806, 904.579 457.188 C 904.804 449.660, 905.254 442.375, 905.578 441 C 907.586 432.475, 907.973 428.846, 907.444 423.500 C 907.117 420.200, 907.221 418.013, 907.675 418.639 C 908.133 419.272, 908.595 415.112, 908.713 409.286 C 908.831 403.515, 909.383 398.243, 909.941 397.571 C 910.499 396.899, 911.205 388.966, 911.509 379.943 C 911.814 370.919, 912.499 363.101, 913.032 362.568 C 913.564 362.036, 914 355.606, 914 348.280 L 914 334.959 893.331 335.230 L 872.663 335.500 872.898 342.750 C 873.035 346.946, 872.724 350, 872.161 350 C 871.625 350, 871.425 350.911, 871.717 352.025 C 872.008 353.138, 871.750 355.951, 871.143 358.275 C 870.126 362.170, 868.787 379.470, 868.958 386.500 L 869.031 389.500 850.016 389.208 L 831 388.916 831.015 382.708 C 831.024 379.294, 831.383 377.055, 831.813 377.732 C 832.279 378.465, 832.646 377.451, 832.719 375.232 C 833.356 355.822, 834.395 342.752, 835.163 344.500 C 835.902 346.184, 835.961 346.104, 835.534 344 C 835.255 342.625, 835.021 340.038, 835.014 338.250 L 835 335 814.475 335 L 793.950 335 792.902 337.750 M 836 337.500 C 836 337.775, 836.225 338, 836.500 338 C 836.775 338, 837 337.775, 837 337.500 C 837 337.225, 836.775 337, 836.500 337 C 836.225 337, 836 337.225, 836 337.500 M 344.252 370.500 C 344.263 372.700, 344.468 373.482, 344.707 372.238 C 344.946 370.994, 344.937 369.194, 344.687 368.238 C 344.437 367.282, 344.241 368.300, 344.252 370.500 M 387.195 371.500 C 387.215 373.150, 387.439 373.704, 387.693 372.731 C 387.947 371.758, 387.930 370.408, 387.656 369.731 C 387.382 369.054, 387.175 369.850, 387.195 371.500 M 867 387 C 867 387.733, 867.300 388.033, 867.667 387.667 C 868.033 387.300, 868.033 386.700, 867.667 386.333 C 867.300 385.967, 867 386.267, 867 387 M 471.158 394 C 471.158 395.375, 471.385 395.938, 471.662 395.250 C 471.940 394.563, 471.940 393.438, 471.662 392.750 C 471.385 392.063, 471.158 392.625, 471.158 394 M 658 401 C 658 401.733, 658.300 402.033, 658.667 401.667 C 659.033 401.300, 659.033 400.700, 658.667 400.333 C 658.300 399.967, 658 400.267, 658 401 M 658 417.500 C 658 417.775, 658.225 418, 658.500 418 C 658.775 418, 659 417.775, 659 417.500 C 659 417.225, 658.775 417, 658.500 417 C 658.225 417, 658 417.225, 658 417.500 M 908 423.500 C 908 423.775, 908.225 424, 908.500 424 C 908.775 424, 909 423.775, 909 423.500 C 909 423.225, 908.775 423, 908.500 423 C 908.225 423, 908 423.225, 908 423.500 M 512 431.500 C 512 431.775, 512.225 432, 512.500 432 C 512.775 432, 513 431.775, 513 431.500 C 513 431.225, 512.775 431, 512.500 431 C 512.225 431, 512 431.225, 512 431.500 M 905 455 C 905 455.733, 905.300 456.033, 905.667 455.667 C 906.033 455.300, 906.033 454.700, 905.667 454.333 C 905.300 453.967, 905 454.267, 905 455 M 639 464.500 C 639 464.775, 639.225 465, 639.500 465 C 639.775 465, 640 464.775, 640 464.500 C 640 464.225, 639.775 464, 639.500 464 C 639.225 464, 639 464.225, 639 464.500 M 711 473.500 C 711 473.775, 711.225 474, 711.500 474 C 711.775 474, 712 473.775, 712 473.500 C 712 473.225, 711.775 473, 711.500 473 C 711.225 473, 711 473.225, 711 473.500 M 780 474.500 C 780 474.775, 780.225 475, 780.500 475 C 780.775 475, 781 474.775, 781 474.500 C 781 474.225, 780.775 474, 780.500 474 C 780.225 474, 780 474.225, 780 474.500 M 34.407 494.935 C 32.156 495.297, 29.142 495.530, 27.709 495.454 C 26.277 495.377, 25.194 495.806, 25.302 496.407 C 25.411 497.008, 24.838 497.354, 24.028 497.176 C 22.867 496.920, 22.920 497.254, 24.280 498.757 C 25.229 499.805, 25.666 501.001, 25.252 501.414 C 24.838 501.828, 25.175 502.017, 26 501.833 C 26.825 501.650, 27.417 501.973, 27.317 502.550 C 27.216 503.127, 28.116 503.658, 29.317 503.728 C 30.517 503.799, 247.837 504.186, 512.250 504.588 L 993 505.320 993 499.646 L 993 493.973 515.750 494.125 C 253.262 494.210, 36.658 494.574, 34.407 494.935 M 21 495.500 C 21 495.775, 21.225 496, 21.500 496 C 21.775 496, 22 495.775, 22 495.500 C 22 495.225, 21.775 495, 21.500 495 C 21.225 495, 21 495.225, 21 495.500 M 23 495.500 C 23 495.775, 23.225 496, 23.500 496 C 23.775 496, 24 495.775, 24 495.500 C 24 495.225, 23.775 495, 23.500 495 C 23.225 495, 23 495.225, 23 495.500 M 26.056 497.432 C 25.312 498.329, 25.687 499.297, 27.407 500.913 C 29.960 503.311, 30.668 502.904, 30.565 499.095 C 30.493 496.424, 27.737 495.407, 26.056 497.432 M 27.423 498.677 C 27.806 501.284, 29.600 502.100, 29.600 499.667 C 29.600 498.383, 29.066 497.333, 28.413 497.333 C 27.760 497.333, 27.315 497.938, 27.423 498.677 M 21 499.500 C 21 499.775, 21.225 500, 21.500 500 C 21.775 500, 22 499.775, 22 499.500 C 22 499.225, 21.775 499, 21.500 499 C 21.225 499, 21 499.225, 21 499.500 M 28 499.500 C 28 499.775, 28.225 500, 28.500 500 C 28.775 500, 29 499.775, 29 499.500 C 29 499.225, 28.775 499, 28.500 499 C 28.225 499, 28 499.225, 28 499.500 M 23 501.500 C 23 501.775, 23.225 502, 23.500 502 C 23.775 502, 24 501.775, 24 501.500 C 24 501.225, 23.775 501, 23.500 501 C 23.225 501, 23 501.225, 23 501.500 M 21 503.500 C 21 503.775, 21.225 504, 21.500 504 C 21.775 504, 22 503.775, 22 503.500 C 22 503.225, 21.775 503, 21.500 503 C 21.225 503, 21 503.225, 21 503.500 M 23 503.500 C 23 503.775, 23.225 504, 23.500 504 C 23.775 504, 24 503.775, 24 503.500 C 24 503.225, 23.775 503, 23.500 503 C 23.225 503, 23 503.225, 23 503.500 M 25 503.500 C 25 503.775, 25.225 504, 25.500 504 C 25.775 504, 26 503.775, 26 503.500 C 26 503.225, 25.775 503, 25.500 503 C 25.225 503, 25 503.225, 25 503.500" stroke="none" fill="#0f0000" fill-rule="evenodd"/>
</svg>